<svg width="600" height="120" viewBox="0 0 600 120" xmlns="http://www.w3.org/2000/svg">
  <defs>
    <linearGradient id="textGradient" x1="0%" y1="0%" x2="100%" y2="0%">
      <stop offset="0%" style="stop-color:#6AADAB"/>
      <stop offset="50%" style="stop-color:#4A9A98"/>
      <stop offset="100%" style="stop-color:#3D5A80"/>
    </linearGradient>
  </defs>

  <!-- Logo -->
  <g transform="translate(85, 10) scale(0.19)">
    <!-- Arm 1 - Top Right (Teal Light) -->
    <path fill="#6AADAB" d="M2057 4503 c-11 -10 -8 -251 4 -386 12 -143 37 -228 85 -291 49 -65
    101 -91 235 -119 258 -55 463 -185 606 -385 124 -174 168 -391 113 -565 -12
    -37 -18 -76 -15 -87 3 -10 35 -46 71 -80 62 -58 67 -60 84 -45 31 28 89 149
    106 221 23 96 14 268 -20 387 -52 185 -130 310 -290 465 -169 163 -358 263
    -603 317 -119 27 -140 62 -145 240 l-3 100 116 -2 c270 -5 566 -108 741 -257
    215 -183 317 -386 348 -688 20 -193 -15 -422 -106 -698 -54 -165 -117 -294
    -225 -465 -97 -155 -105 -173 -90 -218 19 -57 54 -82 116 -82 70 0 87 17 176
    166 185 313 298 611 346 920 24 156 24 433 0 545 -52 245 -142 416 -314 595
    -222 231 -521 367 -895 408 -107 12 -431 15 -441 4z" transform="translate(0,469) scale(0.1,-0.1)"/>

    <!-- Arm 2 - Top Left (Teal Dark) -->
    <path fill="#4A9A98" d="M1450 3599 c-105 -14 -254 -55 -350 -97 -120 -53 -218 -120 -324
    -222 -182 -173 -291 -361 -361 -616 -47 -168 -57 -249 -62 -496 -5 -217 -4
    -238 11 -244 21 -8 406 13 495 27 113 17 213 83 255 168 13 25 29 78 35 116
    24 140 92 302 176 420 56 80 185 202 263 248 34 21 99 52 144 69 74 27 95 31
    193 31 87 0 122 -5 169 -22 33 -11 66 -21 75 -21 20 0 151 124 151 143 0 34
    -99 90 -208 118 -210 54 -483 -2 -689 -142 -226 -153 -420 -438 -483 -709 -42
    -182 -49 -188 -216 -202 -64 -5 -122 -7 -131 -4 -12 5 -14 21 -8 94 30 391
    131 648 333 846 158 155 354 242 605 267 341 34 852 -116 1206 -354 65 -44
    124 -77 138 -77 104 0 167 133 96 204 -82 82 -455 272 -682 346 -290 96 -609
    138 -831 109z" transform="translate(0,469) scale(0.1,-0.1)"/>

    <!-- Arm 3 - Bottom Left (Navy Dark) -->
    <path fill="#2B3E5C" d="M1735 2861 c-34 -21 -142 -194 -229 -368 -165 -330 -250 -667 -250
    -993 0 -170 10 -250 49 -386 92 -315 308 -567 620 -723 227 -113 438 -157 791
    -168 l211 -6 5 28 c7 36 -9 377 -22 471 -12 91 -39 152 -91 209 -59 64 -92 81
    -192 100 -115 21 -175 43 -294 104 -171 88 -308 214 -391 361 -88 157 -111
    347 -59 484 17 46 23 75 17 85 -5 9 -38 45 -74 81 l-66 64 -30 -29 c-136 -130
    -144 -497 -17 -750 53 -106 100 -175 181 -261 157 -170 381 -298 618 -354 51
    -13 103 -29 115 -36 41 -26 55 -69 60 -195 l6 -119 -44 0 c-129 1 -325 33
    -456 76 -350 114 -586 356 -674 690 -27 101 -37 353 -20 475 44 311 187 689
    346 919 50 73 65 102 65 129 0 66 -61 131 -122 131 -13 0 -36 -8 -53 -19z" transform="translate(0,469) scale(0.1,-0.1)"/>

    <!-- Arm 4 - Bottom Right (Navy Light) -->
    <path fill="#3D5A80" d="M4295 2803 c-206 -11 -283 -33 -359 -103 -66 -61 -83 -95 -110 -216
    -51 -232 -134 -385 -288 -536 -141 -138 -292 -208 -466 -216 -93 -4 -111 -2
    -188 23 l-86 28 -69 -69 c-47 -47 -69 -75 -67 -89 4 -24 93 -80 163 -101 188
    -56 402 -33 610 65 122 59 195 113 305 228 160 165 255 345 312 583 11 47 26
    96 35 108 23 37 74 52 195 59 l111 6 -6 -139 c-27 -575 -347 -976 -842 -1054
    -101 -16 -334 -13 -440 5 -327 57 -611 171 -875 348 -99 67 -150 74 -203 27
    -45 -39 -57 -87 -33 -136 20 -43 134 -118 331 -220 375 -194 737 -284 1094
    -271 211 7 343 39 514 123 122 60 207 122 308 224 177 179 299 423 359 720 25
    122 41 373 33 513 l-6 97 -136 -2 c-75 -1 -163 -3 -196 -5z" transform="translate(0,469) scale(0.1,-0.1)"/>
  </g>

  <!-- Text with gradient -->
  <text x="185" y="72" font-family="system-ui, -apple-system, 'Segoe UI', sans-serif" font-size="36" font-weight="700" fill="url(#textGradient)">
    drizzle-multitenant
  </text>
</svg>
